<?xml version="1.0" encoding="UTF-8" standalone="no"?>
<svg width="2140px" height="460px" viewBox="0 0 2140 460" version="1.1" xmlns="http://www.w3.org/2000/svg" xmlns:xlink="http://www.w3.org/1999/xlink">
    <g stroke="none" stroke-width="1" fill="none" fill-rule="evenodd">
        <g fill="#4A4A4A">
            <g transform="translate(0.000000, 7.000000)">
                <path d="M223.26442,446 C346.569955,446 446.528841,346.159499 446.528841,223 C446.528841,99.8405008 346.569955,0 223.26442,0 C99.9588858,0 0,99.8405008 0,223 C0,346.159499 99.9588858,446 223.26442,446 L223.26442,446 L223.26442,446 Z M212.01203,64.8483238 C121.321896,64.8483238 59.549652,138.28425 59.549652,228.866976 C59.549652,319.449702 133.072655,392.885629 223.762788,392.885629 C314.373554,392.885629 387.771876,319.61154 387.975887,228.899932 L387.851075,128.205131 L387.841426,120.426658 L381.390045,116.069716 L304.917768,64.4241425 L296.403293,58.6738898 L288.077534,64.6935169 L215.1526,117.419156 L209.076977,121.811907 L209.076977,129.303373 L209.076977,228.866976 L238.453875,228.866976 L238.453881,136.796788 L297.012792,94.5396279 L358.599044,136.796788 L358.599039,228.885153 C358.431415,303.377597 298.16348,363.543524 223.762788,363.543524 C149.297067,363.543524 88.9265496,303.244505 88.9265496,228.866976 C88.9265496,154.489447 149.297067,94.190429 223.762788,94.190429 C229.456492,94.190429 235.111663,94.5443261 240.723807,95.2450126 L244.367562,66.129491 C237.550526,65.2783706 218.92774,64.8483238 212.01203,64.8483238 L212.01203,64.8483238 L212.01203,64.8483238 Z"></path>
                <path d="M530.12462,278.75 L530.12462,38.160875 L569.156824,38.160875 L569.156824,278.75 L530.12462,278.75 L530.12462,278.75 Z M714.736387,135.801425 L666.209866,135.801425 L666.209866,213.070925 C666.209866,227.354146 667.264779,236.837126 669.37464,241.52015 C671.484501,246.203174 676.876281,248.54465 685.550145,248.54465 L714.384745,247.490975 L716.142955,278.04755 C700.436224,281.091515 688.480532,282.613475 680.275524,282.613475 C660.349076,282.613475 646.693803,278.047596 639.309295,268.9157 C631.924787,259.783804 628.232588,242.573952 628.232588,217.285625 L628.232588,135.801425 L605.727535,135.801425 L605.727535,103.1375 L628.232588,103.1375 L628.232588,52.209875 L666.209866,52.209875 L666.209866,103.1375 L714.736387,103.1375 L714.736387,135.801425 L714.736387,135.801425 Z M876.139818,157.22615 L876.139818,237.30545 C876.374249,242.456776 877.722196,246.261675 880.183695,248.720262 C882.645197,251.17885 886.454608,252.759347 891.612044,253.4618 L890.557118,282.613475 C870.396244,282.613475 854.806959,278.281744 843.788807,269.61815 C825.034501,278.281744 806.163262,282.613475 787.174529,282.613475 C752.244639,282.613475 734.77995,263.998736 734.77995,226.7687 C734.77995,208.973211 739.527063,196.09509 749.021432,188.13395 C758.5158,180.17281 773.108771,175.372783 792.800792,173.733725 L838.16254,169.87025 L838.16254,157.22615 C838.16254,147.860103 836.111321,141.303969 832.008816,137.55755 C827.90631,133.811131 821.869858,131.93795 813.899281,131.93795 C798.895839,131.93795 780.141811,132.87454 757.636645,134.74775 L746.384119,135.4502 L744.977555,108.405875 C770.530297,102.317945 794.031432,99.274025 815.481668,99.274025 C836.931904,99.274025 852.403968,103.898441 861.898341,113.147412 C871.39271,122.396384 876.139818,137.089149 876.139818,157.22615 L876.139818,157.22615 L876.139818,157.22615 Z M797.372134,200.77805 C781.196545,202.182957 773.108871,210.963494 773.108871,227.119925 C773.108871,243.276356 780.258844,251.35445 794.559002,251.35445 C806.280438,251.35445 818.70498,249.481269 831.832997,245.73485 L838.16254,243.6275 L838.16254,196.914575 L797.372134,200.77805 L797.372134,200.77805 Z M926.424549,278.75 L926.424549,30.0827 L964.75347,30.0827 L964.75347,278.75 L926.424549,278.75 L926.424549,278.75 Z M1013.27999,278.75 L1013.27999,103.1375 L1051.60891,103.1375 L1051.60891,278.75 L1013.27999,278.75 L1013.27999,278.75 Z M1013.27999,73.283375 L1013.27999,32.8925 L1051.60891,32.8925 L1051.60891,73.283375 L1013.27999,73.283375 L1013.27999,73.283375 Z M1228.13292,157.22615 L1228.13292,237.30545 C1228.36735,242.456776 1229.7153,246.261675 1232.1768,248.720262 C1234.6383,251.17885 1238.44771,252.759347 1243.60515,253.4618 L1242.55022,282.613475 C1222.38934,282.613475 1206.80006,278.281744 1195.78191,269.61815 C1177.0276,278.281744 1158.15637,282.613475 1139.16763,282.613475 C1104.23774,282.613475 1086.77305,263.998736 1086.77305,226.7687 C1086.77305,208.973211 1091.52017,196.09509 1101.01454,188.13395 C1110.5089,180.17281 1125.10187,175.372783 1144.7939,173.733725 L1190.15564,169.87025 L1190.15564,157.22615 C1190.15564,147.860103 1188.10443,141.303969 1184.00192,137.55755 C1179.89941,133.811131 1173.86296,131.93795 1165.89238,131.93795 C1150.88894,131.93795 1132.13491,132.87454 1109.62975,134.74775 L1098.37722,135.4502 L1096.97066,108.405875 C1122.5234,102.317945 1146.02454,99.274025 1167.47477,99.274025 C1188.92501,99.274025 1204.39707,103.898441 1213.89145,113.147412 C1223.38581,122.396384 1228.13292,137.089149 1228.13292,157.22615 L1228.13292,157.22615 L1228.13292,157.22615 Z M1149.36524,200.77805 C1133.18965,202.182957 1125.10197,210.963494 1125.10197,227.119925 C1125.10197,243.276356 1132.25194,251.35445 1146.55211,251.35445 C1158.27354,251.35445 1170.69808,249.481269 1183.8261,245.73485 L1190.15564,243.6275 L1190.15564,196.914575 L1149.36524,200.77805 L1149.36524,200.77805 Z M1314.63672,278.75 L1276.30781,278.75 L1276.30781,103.1375 L1314.28508,103.1375 L1314.28508,114.025475 C1331.39838,104.191126 1347.57373,99.274025 1362.8116,99.274025 C1386.25449,99.274025 1402.25401,105.888696 1410.81066,119.118237 C1419.36731,132.347779 1423.64557,154.182048 1423.64557,184.6217 L1423.64557,278.75 L1385.6683,278.75 L1385.6683,185.675375 C1385.6683,166.70913 1383.61708,153.24564 1379.51457,145.2845 C1375.41207,137.32336 1367.03136,133.34285 1354.37221,133.34285 C1342.41633,133.34285 1330.9295,135.684326 1319.91134,140.36735 L1314.63672,142.4747 L1314.63672,278.75 L1314.63672,278.75 Z M1453.18346,103.1375 L1490.80909,103.1375 L1518.58877,246.086075 L1525.6216,246.086075 L1559.02754,106.64975 L1598.41138,106.64975 L1631.81732,246.086075 L1638.85015,246.086075 L1666.27818,103.1375 L1704.25546,103.1375 L1666.98147,278.75 L1606.14749,278.75 L1578.71946,158.279825 L1551.29143,278.75 L1490.45745,278.75 L1453.18346,103.1375 L1453.18346,103.1375 Z M1867.06546,157.22615 L1867.06546,237.30545 C1867.29989,242.456776 1868.64783,246.261675 1871.10934,248.720262 C1873.57084,251.17885 1877.38025,252.759347 1882.53768,253.4618 L1881.48276,282.613475 C1861.32188,282.613475 1845.7326,278.281744 1834.71445,269.61815 C1815.96014,278.281744 1797.0889,282.613475 1778.10017,282.613475 C1743.17028,282.613475 1725.70559,263.998736 1725.70559,226.7687 C1725.70559,208.973211 1730.4527,196.09509 1739.94707,188.13395 C1749.44144,180.17281 1764.03441,175.372783 1783.72643,173.733725 L1829.08818,169.87025 L1829.08818,157.22615 C1829.08818,147.860103 1827.03696,141.303969 1822.93445,137.55755 C1818.83195,133.811131 1812.7955,131.93795 1804.82492,131.93795 C1789.82148,131.93795 1771.06745,132.87454 1748.56229,134.74775 L1737.30976,135.4502 L1735.90319,108.405875 C1761.45593,102.317945 1784.95707,99.274025 1806.40731,99.274025 C1827.85754,99.274025 1843.32961,103.898441 1852.82398,113.147412 C1862.31835,122.396384 1867.06546,137.089149 1867.06546,157.22615 L1867.06546,157.22615 L1867.06546,157.22615 Z M1788.29777,200.77805 C1772.12219,202.182957 1764.03451,210.963494 1764.03451,227.119925 C1764.03451,243.276356 1771.18448,251.35445 1785.48464,251.35445 C1797.20608,251.35445 1809.63062,249.481269 1822.75863,245.73485 L1829.08818,243.6275 L1829.08818,196.914575 L1788.29777,200.77805 L1788.29777,200.77805 Z M1896.95498,103.1375 L1934.58062,103.1375 L1971.85461,246.086075 L1981.34893,246.086075 L2018.62293,103.1375 L2056.60021,103.1375 L1989.78833,354.263375 L1952.16269,354.263375 L1973.26118,278.75 L1943.02001,278.75 L1896.95498,103.1375 L1896.95498,103.1375 Z"></path>
                <path d="M565.863672,356.6885 L565.863672,386.5705 C566.161364,389.320847 568.580036,390.956164 573.119767,391.4765 L572.78487,396.8285 C567.054388,396.8285 562.849616,395.341848 560.170431,392.3685 C553.174775,395.416182 546.179228,396.94 539.183576,396.94 C534.19731,396.94 530.401855,395.509098 527.79709,392.64725 C525.192325,389.785402 523.889962,385.69711 523.889962,380.38225 C523.889962,375.06739 525.21093,371.127763 527.852905,368.56325 C530.49488,365.998737 534.643837,364.41917 540.299899,363.8245 L559.277373,361.929 L559.277373,356.6885 C559.277373,352.525813 558.365718,349.533926 556.542382,347.71275 C554.71905,345.891574 552.281769,344.981 549.230472,344.981 C544.467474,344.981 538.290557,345.426996 530.699525,346.319 L527.238929,346.6535 L526.904031,341.3015 C535.090434,339.740492 542.25343,338.96 548.393233,338.96 C554.533036,338.96 558.979672,340.409486 561.733281,343.3085 C564.48689,346.207514 565.863672,350.66747 565.863672,356.6885 L565.863672,356.6885 L565.863672,356.6885 Z M530.811159,379.992 C530.811159,387.499704 533.899618,391.2535 540.076631,391.2535 C542.75582,391.2535 545.695439,390.937587 548.895579,390.30575 C552.095715,389.673913 554.626021,389.023503 556.486567,388.3545 L559.277373,387.351 L559.277373,367.1695 L541.081323,369.065 C537.434651,369.362335 534.811321,370.402991 533.211253,372.187 C531.61118,373.971009 530.811159,376.57265 530.811159,379.992 L530.811159,379.992 L530.811159,379.992 Z M588.190113,420.9125 L588.190113,340.075 L594.776417,340.075 L594.776417,344.312 C600.581318,340.743982 606.702425,338.96 613.139916,338.96 C619.577402,338.96 624.377536,341.227144 627.540471,345.7615 C630.703393,350.295856 632.284838,357.673366 632.284838,367.89425 C632.284838,378.115134 630.424319,385.511227 626.703227,390.08275 C622.982136,394.654273 616.805214,396.94 608.17228,396.94 C603.558125,396.94 599.09288,396.456838 594.776417,395.4905 L594.776417,420.9125 L588.190113,420.9125 L588.190113,420.9125 Z M611.744511,344.981 C609.288594,344.981 606.646654,345.389829 603.818625,346.2075 C600.990596,347.025171 598.795179,347.879996 597.232325,348.772 L594.776417,349.9985 L594.776417,389.6925 C599.837099,390.584504 604.227925,391.0305 607.949017,391.0305 C614.349293,391.0305 618.851748,389.227935 621.456513,385.62275 C624.061278,382.017565 625.363641,376.070958 625.363641,367.78275 C625.363641,359.494542 624.228727,353.622267 621.95886,350.16575 C619.688992,346.709233 616.284241,344.981 611.744511,344.981 L611.744511,344.981 L611.744511,344.981 Z M689.99869,356.6885 L689.99869,386.5705 C690.296382,389.320847 692.715054,390.956164 697.254785,391.4765 L696.919887,396.8285 C691.189406,396.8285 686.984634,395.341848 684.305449,392.3685 C677.309793,395.416182 670.31425,396.94 663.318594,396.94 C658.332328,396.94 654.536873,395.509098 651.932108,392.64725 C649.327343,389.785402 648.02498,385.69711 648.02498,380.38225 C648.02498,375.06739 649.345948,371.127763 651.987923,368.56325 C654.629902,365.998737 658.778855,364.41917 664.434916,363.8245 L683.41239,361.929 L683.41239,356.6885 C683.41239,352.525813 682.500736,349.533926 680.6774,347.71275 C678.854068,345.891574 676.416787,344.981 673.36549,344.981 C668.602492,344.981 662.425575,345.426996 654.834543,346.319 L651.373947,346.6535 L651.039049,341.3015 C659.225452,339.740492 666.388443,338.96 672.528251,338.96 C678.668049,338.96 683.11469,340.409486 685.868299,343.3085 C688.621907,346.207514 689.99869,350.66747 689.99869,356.6885 L689.99869,356.6885 L689.99869,356.6885 Z M654.946177,379.992 C654.946177,387.499704 658.03464,391.2535 664.211648,391.2535 C666.890833,391.2535 669.830456,390.937587 673.030597,390.30575 C676.230733,389.673913 678.761039,389.023503 680.621585,388.3545 L683.41239,387.351 L683.41239,367.1695 L665.216341,369.065 C661.569669,369.362335 658.946338,370.402991 657.34627,372.187 C655.746202,373.971009 654.946177,376.57265 654.946177,379.992 L654.946177,379.992 L654.946177,379.992 Z M712.325131,395.825 L712.325131,340.075 L718.911435,340.075 L718.911435,348.103 C721.665044,346.170323 725.032581,344.312009 729.01415,342.528 C732.995715,340.743991 736.66094,339.55467 740.00992,338.96 L740.00992,345.65 C736.809784,346.319003 733.460852,347.341077 729.963024,348.71625 C726.465196,350.091423 723.748836,351.299328 721.81387,352.34 L718.911435,354.0125 L718.911435,395.825 L712.325131,395.825 L712.325131,395.825 Z M783.43485,345.9845 L764.792273,345.9845 L764.792273,373.525 C764.792273,380.735369 765.313216,385.455489 766.355123,387.6855 C767.39703,389.915511 769.852911,391.0305 773.722847,391.0305 L783.993011,390.25 L784.439542,395.9365 C779.5277,396.679837 775.769451,397.0515 773.164686,397.0515 C767.508629,397.0515 763.582931,395.657764 761.387487,392.87025 C759.192048,390.082736 758.09434,384.749373 758.09434,376.87 L758.09434,345.9845 L749.833557,345.9845 L749.833557,340.075 L758.09434,340.075 L758.09434,322.5695 L764.792273,322.5695 L764.792273,340.075 L783.43485,340.075 L783.43485,345.9845 L783.43485,345.9845 Z M805.538027,395.825 L798.951728,395.825 L798.951728,340.075 L805.538027,340.075 L805.538027,344.2005 C811.194084,340.706816 817.222166,338.96 823.622447,338.96 C830.022723,338.96 834.562384,340.929813 837.241578,344.8695 C839.920758,343.234159 843.17667,341.840423 847.009396,340.68825 C850.842117,339.536077 854.284073,338.96 857.335374,338.96 C864.777558,338.96 869.745141,340.91123 872.238272,344.81375 C874.731407,348.71627 875.977951,355.945114 875.977951,366.5005 L875.977951,395.825 L869.391651,395.825 L869.391651,366.835 C869.391651,358.286624 868.59163,352.507265 866.991558,349.49675 C865.39149,346.486235 861.912323,344.981 856.55395,344.981 C853.87476,344.981 851.121195,345.371246 848.293167,346.15175 C845.465134,346.932254 843.306935,347.731329 841.818497,348.549 L839.585852,349.664 C840.702179,352.488681 841.260335,358.21229 841.260335,366.835 L841.260335,395.825 L834.562402,395.825 L834.562402,367.058 C834.562402,358.360956 833.762381,352.507265 832.162308,349.49675 C830.56224,346.486235 827.120279,344.981 821.83633,344.981 C819.231565,344.981 816.571024,345.371246 813.854629,346.15175 C811.13823,346.932254 809.073052,347.731329 807.659042,348.549 L805.538027,349.664 L805.538027,395.825 L805.538027,395.825 Z M934.138334,390.25 L937.487301,389.9155 L937.710564,395.379 C929.300898,396.419672 922.193717,396.94 916.388812,396.94 C908.351253,396.865666 902.732489,394.487024 899.532348,389.804 C896.332212,385.120976 894.732166,377.910715 894.732166,368.173 C894.732166,348.697569 902.397495,338.96 917.728398,338.96 C925.096157,338.96 930.603292,341.059896 934.249968,345.25975 C937.896636,349.459604 939.719945,356.168121 939.719945,365.3855 L939.496682,370.7375 L901.541729,370.7375 C901.541729,377.576201 902.713857,382.6494 905.058145,385.95725 C907.402432,389.2651 911.42115,390.919 917.114422,390.919 C922.807693,390.919 928.482272,390.696002 934.138334,390.25 L934.138334,390.25 L934.138334,390.25 Z M901.541729,365.1625 L933.022012,365.1625 C933.022012,357.803463 931.812674,352.563016 929.393967,349.441 C926.975251,346.318984 923.105376,344.758 917.784217,344.758 C912.463053,344.758 908.425729,346.374734 905.672121,349.60825 C902.918512,352.841766 901.541729,358.026464 901.541729,365.1625 L901.541729,365.1625 L901.541729,365.1625 Z M965.060456,395.825 L958.474156,395.825 L958.474156,340.075 L965.060456,340.075 L965.060456,344.2005 C971.311888,340.706816 977.37718,338.96 983.256505,338.96 C990.698693,338.96 995.666276,340.929813 998.159407,344.8695 C1000.65254,348.809187 1001.89909,356.019448 1001.89909,366.5005 L1001.89909,395.825 L995.201152,395.825 L995.201152,366.835 C995.201152,358.286624 994.382527,352.507265 992.745244,349.49675 C991.107962,346.486235 987.610191,344.981 982.251817,344.981 C979.647052,344.981 976.912091,345.371246 974.046849,346.15175 C971.181606,346.932254 968.967588,347.731329 967.404734,348.549 L965.060456,349.664 L965.060456,395.825 L965.060456,395.825 Z M1050.79399,345.9845 L1032.15142,345.9845 L1032.15142,373.525 C1032.15142,380.735369 1032.67236,385.455489 1033.71427,387.6855 C1034.75617,389.915511 1037.21206,391.0305 1041.08199,391.0305 L1051.35215,390.25 L1051.79868,395.9365 C1046.88684,396.679837 1043.12859,397.0515 1040.52383,397.0515 C1034.86777,397.0515 1030.94207,395.657764 1028.74663,392.87025 C1026.55119,390.082736 1025.45348,384.749373 1025.45348,376.87 L1025.45348,345.9845 L1017.1927,345.9845 L1017.1927,340.075 L1025.45348,340.075 L1025.45348,322.5695 L1032.15142,322.5695 L1032.15142,340.075 L1050.79399,340.075 L1050.79399,345.9845 L1050.79399,345.9845 Z M1065.75271,395.825 L1065.75271,384.5635 L1073.12043,384.5635 L1073.12043,395.825 L1065.75271,395.825 L1065.75271,395.825 Z M1160.86335,390.25 L1164.21232,389.9155 L1164.43558,395.379 C1156.02592,396.419672 1148.91874,396.94 1143.11383,396.94 C1135.07627,396.865666 1129.45751,394.487024 1126.25737,389.804 C1123.05723,385.120976 1121.45718,377.910715 1121.45718,368.173 C1121.45718,348.697569 1129.12251,338.96 1144.45342,338.96 C1151.82118,338.96 1157.32831,341.059896 1160.97499,345.25975 C1164.62165,349.459604 1166.44496,356.168121 1166.44496,365.3855 L1166.2217,370.7375 L1128.26675,370.7375 C1128.26675,377.576201 1129.43888,382.6494 1131.78316,385.95725 C1134.12745,389.2651 1138.14617,390.919 1143.83944,390.919 C1149.53271,390.919 1155.20729,390.696002 1160.86335,390.25 L1160.86335,390.25 L1160.86335,390.25 Z M1128.26675,365.1625 L1159.74703,365.1625 C1159.74703,357.803463 1158.53769,352.563016 1156.11899,349.441 C1153.70027,346.318984 1149.8304,344.758 1144.50924,344.758 C1139.18807,344.758 1135.15075,346.374734 1132.39714,349.60825 C1129.64353,352.841766 1128.26675,358.026464 1128.26675,365.1625 L1128.26675,365.1625 L1128.26675,365.1625 Z M1178.94777,340.075 L1186.42713,340.075 L1201.16258,363.044 L1215.89803,340.075 L1223.37739,340.075 L1205.18134,367.8385 L1223.26576,395.825 L1215.89803,395.825 L1201.16258,372.9675 L1186.42713,395.825 L1178.94777,395.825 L1196.92056,367.95 L1178.94777,340.075 L1178.94777,340.075 Z M1239.45243,420.9125 L1239.45243,340.075 L1246.03873,340.075 L1246.03873,344.312 C1251.84363,340.743982 1257.96474,338.96 1264.40223,338.96 C1270.83972,338.96 1275.63985,341.227144 1278.80278,345.7615 C1281.96571,350.295856 1283.54715,357.673366 1283.54715,367.89425 C1283.54715,378.115134 1281.68664,385.511227 1277.96554,390.08275 C1274.24445,394.654273 1268.06753,396.94 1259.43459,396.94 C1254.82044,396.94 1250.3552,396.456838 1246.03873,395.4905 L1246.03873,420.9125 L1239.45243,420.9125 L1239.45243,420.9125 Z M1263.00682,344.981 C1260.5509,344.981 1257.90897,345.389829 1255.08094,346.2075 C1252.2529,347.025171 1250.0575,347.879996 1248.49464,348.772 L1246.03873,349.9985 L1246.03873,389.6925 C1251.09941,390.584504 1255.49024,391.0305 1259.21133,391.0305 C1265.61161,391.0305 1270.11406,389.227935 1272.71883,385.62275 C1275.32359,382.017565 1276.62595,376.070958 1276.62595,367.78275 C1276.62595,359.494542 1275.49104,353.622267 1273.22117,350.16575 C1270.9513,346.709233 1267.54655,344.981 1263.00682,344.981 L1263.00682,344.981 L1263.00682,344.981 Z M1339.80979,390.25 L1343.15875,389.9155 L1343.38202,395.379 C1334.97234,396.419672 1327.86517,396.94 1322.06026,396.94 C1314.0227,396.865666 1308.40394,394.487024 1305.2038,389.804 C1302.00366,385.120976 1300.40361,377.910715 1300.40361,368.173 C1300.40361,348.697569 1308.06895,338.96 1323.39985,338.96 C1330.76761,338.96 1336.27474,341.059896 1339.92142,345.25975 C1343.56808,349.459604 1345.39139,356.168121 1345.39139,365.3855 L1345.16813,370.7375 L1307.21318,370.7375 C1307.21318,377.576201 1308.38531,382.6494 1310.72959,385.95725 C1313.07388,389.2651 1317.0926,390.919 1322.78587,390.919 C1328.47915,390.919 1334.15372,390.696002 1339.80979,390.25 L1339.80979,390.25 L1339.80979,390.25 Z M1307.21318,365.1625 L1338.69347,365.1625 C1338.69347,357.803463 1337.48412,352.563016 1335.06542,349.441 C1332.6467,346.318984 1328.77683,344.758 1323.45567,344.758 C1318.13451,344.758 1314.09717,346.374734 1311.34357,349.60825 C1308.58996,352.841766 1307.21318,358.026464 1307.21318,365.1625 L1307.21318,365.1625 L1307.21318,365.1625 Z M1364.14561,395.825 L1364.14561,340.075 L1370.73191,340.075 L1370.73191,348.103 C1373.48551,346.170323 1376.85305,344.312009 1380.83462,342.528 C1384.81619,340.743991 1388.48141,339.55467 1391.83039,338.96 L1391.83039,345.65 C1388.63025,346.319003 1385.28132,347.341077 1381.7835,348.71625 C1378.28567,350.091423 1375.56931,351.299328 1373.63434,352.34 L1370.73191,354.0125 L1370.73191,395.825 L1364.14561,395.825 L1364.14561,395.825 Z M1407.01238,395.825 L1407.01238,340.075 L1413.59868,340.075 L1413.59868,395.825 L1407.01238,395.825 L1407.01238,395.825 Z M1407.01238,326.1375 L1407.01238,317.775 L1413.59868,317.775 L1413.59868,326.1375 L1407.01238,326.1375 L1407.01238,326.1375 Z M1472.31722,390.25 L1475.66618,389.9155 L1475.88945,395.379 C1467.47978,396.419672 1460.3726,396.94 1454.5677,396.94 C1446.53013,396.865666 1440.91137,394.487024 1437.71124,389.804 C1434.51109,385.120976 1432.91105,377.910715 1432.91105,368.173 C1432.91105,348.697569 1440.57638,338.96 1455.90729,338.96 C1463.27504,338.96 1468.78218,341.059896 1472.42885,345.25975 C1476.07552,349.459604 1477.89883,356.168121 1477.89883,365.3855 L1477.67557,370.7375 L1439.72061,370.7375 C1439.72061,377.576201 1440.89274,382.6494 1443.23703,385.95725 C1445.58132,389.2651 1449.60003,390.919 1455.29331,390.919 C1460.98658,390.919 1466.66116,390.696002 1472.31722,390.25 L1472.31722,390.25 L1472.31722,390.25 Z M1439.72061,365.1625 L1471.2009,365.1625 C1471.2009,357.803463 1469.99156,352.563016 1467.57285,349.441 C1465.15414,346.318984 1461.28426,344.758 1455.9631,344.758 C1450.64193,344.758 1446.60461,346.374734 1443.851,349.60825 C1441.0974,352.841766 1439.72061,358.026464 1439.72061,365.1625 L1439.72061,365.1625 L1439.72061,365.1625 Z M1503.23934,395.825 L1496.65304,395.825 L1496.65304,340.075 L1503.23934,340.075 L1503.23934,344.2005 C1509.49077,340.706816 1515.55606,338.96 1521.43539,338.96 C1528.87758,338.96 1533.84516,340.929813 1536.33829,344.8695 C1538.83142,348.809187 1540.07797,356.019448 1540.07797,366.5005 L1540.07797,395.825 L1533.38004,395.825 L1533.38004,366.835 C1533.38004,358.286624 1532.56141,352.507265 1530.92413,349.49675 C1529.28685,346.486235 1525.78907,344.981 1520.4307,344.981 C1517.82594,344.981 1515.09097,345.371246 1512.22574,346.15175 C1509.36049,346.932254 1507.14648,347.731329 1505.58362,348.549 L1503.23934,349.664 L1503.23934,395.825 L1503.23934,395.825 Z M1581.94005,338.96 C1585.28903,338.96 1589.27054,339.331663 1593.8847,340.075 L1596.45224,340.4095 L1596.11734,346.096 C1590.23801,345.352663 1585.8844,344.981 1583.05637,344.981 C1576.43282,344.981 1571.89316,346.597734 1569.43724,349.83125 C1566.98132,353.064766 1565.75338,359.011373 1565.75338,367.67125 C1565.75338,376.331127 1566.86969,382.37065 1569.10234,385.79 C1571.335,389.20935 1575.9863,390.919 1583.05637,390.919 L1596.34061,389.9155 L1596.56387,395.602 C1589.94032,396.494004 1585.02856,396.94 1581.82842,396.94 C1572.97221,396.94 1566.92553,394.747189 1563.68818,390.3615 C1560.45083,385.975811 1558.83218,378.431054 1558.83218,367.727 C1558.83218,357.022946 1560.59967,349.552521 1564.13471,345.3155 C1567.66975,341.078479 1573.6048,338.96 1581.94005,338.96 L1581.94005,338.96 L1581.94005,338.96 Z M1650.70549,390.25 L1654.05446,389.9155 L1654.27772,395.379 C1645.86805,396.419672 1638.76087,396.94 1632.95597,396.94 C1624.91841,396.865666 1619.29965,394.487024 1616.0995,389.804 C1612.89936,385.120976 1611.29932,377.910715 1611.29932,368.173 C1611.29932,348.697569 1618.96465,338.96 1634.29555,338.96 C1641.66331,338.96 1647.17045,341.059896 1650.81712,345.25975 C1654.46379,349.459604 1656.2871,356.168121 1656.2871,365.3855 L1656.06384,370.7375 L1618.10889,370.7375 C1618.10889,377.576201 1619.28101,382.6494 1621.6253,385.95725 C1623.96959,389.2651 1627.9883,390.919 1633.68158,390.919 C1639.37485,390.919 1645.04943,390.696002 1650.70549,390.25 L1650.70549,390.25 L1650.70549,390.25 Z M1618.10889,365.1625 L1649.58917,365.1625 C1649.58917,357.803463 1648.37983,352.563016 1645.96112,349.441 C1643.54241,346.318984 1639.67253,344.758 1634.35137,344.758 C1629.0302,344.758 1624.99288,346.374734 1622.23928,349.60825 C1619.48567,352.841766 1618.10889,358.026464 1618.10889,365.1625 L1618.10889,365.1625 L1618.10889,365.1625 Z M1674.48315,395.825 L1674.48315,384.5635 L1681.85087,384.5635 L1681.85087,395.825 L1674.48315,395.825 L1674.48315,395.825 Z M1733.31332,395.825 L1733.31332,315.322 L1739.89962,315.322 L1739.89962,395.825 L1733.31332,395.825 L1733.31332,395.825 Z M1762.3377,395.825 L1762.3377,340.075 L1768.924,340.075 L1768.924,395.825 L1762.3377,395.825 L1762.3377,395.825 Z M1762.3377,326.1375 L1762.3377,317.775 L1768.924,317.775 L1768.924,326.1375 L1762.3377,326.1375 L1762.3377,326.1375 Z M1799.62285,345.9845 L1799.62285,395.825 L1792.92492,395.825 L1792.92492,345.9845 L1785.66883,345.9845 L1785.66883,340.075 L1792.92492,340.075 L1792.92492,334.3885 C1792.92492,326.509127 1794.00402,321.175764 1796.16226,318.38825 C1798.32049,315.600736 1802.15316,314.207 1807.66037,314.207 L1818.4887,314.7645 L1818.4887,320.451 C1814.09781,320.302333 1810.8233,320.228 1808.66506,320.228 C1805.16724,320.228 1802.78577,321.194323 1801.5206,323.127 C1800.25543,325.059677 1799.62285,328.850638 1799.62285,334.5 L1799.62285,340.075 L1816.47932,340.075 L1816.47932,345.9845 L1799.62285,345.9845 L1799.62285,345.9845 Z M1867.7185,390.25 L1871.06747,389.9155 L1871.29073,395.379 C1862.88107,396.419672 1855.77389,396.94 1849.96898,396.94 C1841.93142,396.865666 1836.31266,394.487024 1833.11252,389.804 C1829.91238,385.120976 1828.31233,377.910715 1828.31233,368.173 C1828.31233,348.697569 1835.97767,338.96 1851.30857,338.96 C1858.67633,338.96 1864.18347,341.059896 1867.83013,345.25975 C1871.47681,349.459604 1873.30011,356.168121 1873.30011,365.3855 L1873.07685,370.7375 L1835.1219,370.7375 C1835.1219,377.576201 1836.29402,382.6494 1838.63831,385.95725 C1840.9826,389.2651 1845.00132,390.919 1850.69459,390.919 C1856.38786,390.919 1862.06245,390.696002 1867.7185,390.25 L1867.7185,390.25 L1867.7185,390.25 Z M1835.1219,365.1625 L1866.60218,365.1625 C1866.60218,357.803463 1865.39285,352.563016 1862.97414,349.441 C1860.55542,346.318984 1856.68554,344.758 1851.36438,344.758 C1846.04322,344.758 1842.0059,346.374734 1839.25229,349.60825 C1836.49868,352.841766 1835.1219,358.026464 1835.1219,365.1625 L1835.1219,365.1625 L1835.1219,365.1625 Z M1891.49616,395.825 L1891.49616,384.5635 L1898.86389,384.5635 L1898.86389,395.825 L1891.49616,395.825 L1891.49616,395.825 Z"></path>
            </g>
        </g>
    </g>
</svg>
