<?xml version="1.0" encoding="UTF-8" standalone="no"?>
<!DOCTYPE svg PUBLIC "-//W3C//DTD SVG 1.1//EN" "http://www.w3.org/Graphics/SVG/1.1/DTD/svg11.dtd">
<svg version="1.1" xmlns="http://www.w3.org/2000/svg" xmlns:xlink="http://www.w3.org/1999/xlink" preserveAspectRatio="xMidYMid meet" viewBox="251.867159090909 212.58420454545438 150.97000000000003 147.24246582031253"><defs><path d="M327.35 212.58C285.67 212.58 251.87 246.38 251.87 288.07C251.87 321.42 273.5 349.71 303.49 359.7C307.26 360.39 308.65 358.06 308.65 356.06C308.65 354.27 308.58 348.32 308.54 342.01C287.54 346.58 283.11 333.1 283.11 333.1C279.68 324.38 274.73 322.06 274.73 322.06C267.88 317.37 275.25 317.47 275.25 317.47C282.83 318 286.82 325.25 286.82 325.25C293.55 336.79 304.48 333.45 308.78 331.52C309.46 326.65 311.42 323.32 313.58 321.43C296.81 319.52 279.19 313.05 279.19 284.13C279.19 275.89 282.13 269.15 286.96 263.87C286.18 261.96 283.6 254.29 287.7 243.89C287.7 243.89 294.03 241.86 308.46 251.63C314.48 249.95 320.94 249.12 327.35 249.09C333.77 249.12 340.23 249.95 346.26 251.63C360.67 241.86 367 243.89 367 243.89C371.11 254.29 368.52 261.96 367.74 263.87C372.58 269.15 375.51 275.89 375.51 284.13C375.51 313.12 357.85 319.5 341.04 321.37C343.75 323.71 346.16 328.31 346.16 335.35C346.16 345.45 346.07 353.58 346.07 356.06C346.07 358.07 347.43 360.43 351.26 359.69C381.24 349.69 402.84 321.41 402.84 288.07C402.84 246.38 369.04 212.58 327.35 212.58" id="cRp6ebs1L"></path></defs><g visibility="inherit"><g visibility="inherit"><use xlink:href="#cRp6ebs1L" opacity="1" fill="#643232" fill-opacity="1"></use><g><use xlink:href="#cRp6ebs1L" opacity="1" fill-opacity="0" stroke="#000000" stroke-width="1" stroke-opacity="0"></use></g></g></g></svg>